<?xml version="1.0"?>
<svg version="1.1" xmlns="http://www.w3.org/2000/svg" width="51px" height="51px" style=""><path fill="#47677d" d="M15.861328125,26.361328125q0-0.533203125,0.0341796875-1.5654296875t0.1025390625-2.1533203125t0.177734375-2.0986328125t0.314453125-1.4013671875q0.109375-0.21875,0.3349609375-0.2939453125t0.4443359375-0.0751953125q0.13671875,0,0.4580078125,0.0751953125t0.3212890625,0.2939453125q0,0.341796875-0.08203125,1.2919921875t-0.150390625,2.1806640625t-0.095703125,2.556640625l0,0.587890625q0,0.998046875,0.068359375,1.873046875q0.095703125,1.12109375,0.3623046875,1.845703125t0.7998046875,0.724609375q0.724609375,0,1.353515625-0.4306640625t1.1484375-1.12109375t0.9365234375-1.544921875t0.7109375-1.681640625t0.4921875-1.5244140625t0.2802734375-1.09375q0.08203125-0.451171875,0.1435546875-1.203125t0.1982421875-1.4765625t0.4853515625-1.2578125t1.0185546875-0.533203125q0.396484375,0,0.7587890625,0.13671875t0.4716796875,0.587890625q-0.21875,0.833984375-0.369140625,2.3173828125t-0.2392578125,3.1103515625t-0.1298828125,3.1513671875t-0.041015625,2.4814453125q0,1.06640625,0.02734375,2.6044921875t0.095703125,3.1787109375t0.1572265625,3.1923828125t0.1982421875,2.5908203125q0.109375,0.21875,0.109375,0.505859375q0,0.341796875-0.13671875,0.533203125t-0.3759765625,0.287109375t-0.51953125,0.123046875t-0.5400390625,0.02734375q-0.396484375,0-0.8818359375-0.13671875t-0.5947265625-0.560546875q-0.13671875-0.505859375-0.2255859375-1.3330078125t-0.1298828125-1.8046875t-0.068359375-2.0439453125t-0.02734375-2.0439453125t0.013671875-1.818359375t0.013671875-1.3740234375q0-1.0390625,0.041015625-2.0439453125t0.095703125-2.0439453125q-0.341796875,0.697265625-0.7998046875,1.4150390625t-1.0458984375,1.3056640625t-1.3125,0.9638671875t-1.572265625,0.3759765625q-1.09375,0-1.66796875-0.587890625t-0.833984375-1.4560546875t-0.2939453125-1.845703125t-0.0341796875-1.7705078125z M29.74744140625,35.138671875q0-2.966796875,0.2666015625-5.9404296875t1.1142578125-5.8583984375q0.24609375-0.861328125,0.642578125-1.7021484375t0.970703125-1.4970703125t1.3671875-1.06640625t1.88671875-0.41015625l0.287109375,0.02734375q1.17578125,0.1640625,1.736328125,0.9501953125t0.560546875,1.9619140625q0,0.314453125-0.0751953125,0.7861328125t-0.2392578125,0.9091796875t-0.4443359375,0.7451171875t-0.7041015625,0.3076171875q-0.19140625-0.02734375-0.3486328125-0.068359375t-0.2939453125-0.177734375q0.21875-0.478515625,0.3896484375-0.998046875t0.1708984375-1.189453125q0-0.24609375-0.041015625-0.62890625t-0.1572265625-0.7587890625t-0.3076171875-0.65625t-0.533203125-0.2802734375q-0.861328125,0-1.44921875,0.9638671875t-0.984375,2.4609375t-0.587890625,3.30859375t-0.2939453125,3.5t-0.1162109375,3.048828125t-0.013671875,1.9208984375q0,0.65625-0.013671875,1.44921875l0,0.177734375q0.013671875,0.697265625,0.095703125,1.326171875q0.109375,0.7109375,0.423828125,1.23046875t0.984375,0.6015625q0.205078125,0.02734375,0.396484375,0.02734375q0.79296875,0,1.435546875-0.451171875q0.79296875-0.560546875,1.408203125-1.4560546875t1.09375-1.96875t0.8818359375-2.0302734375t0.7861328125-1.5859375t0.79296875-0.62890625q0.13671875,0,0.41015625,0.0546875t0.2734375,0.259765625q0,0.0546875-0.02734375,0.150390625t-0.068359375,0.150390625q-0.369140625,1.44921875-0.9365234375,3.0078125t-1.44921875,2.8369140625t-2.16015625,2.0849609375t-3.0693359375,0.806640625q-1.28515625,0-2.0849609375-0.4853515625t-1.23046875-1.298828125t-0.587890625-1.8388671875t-0.1572265625-2.078125z M44.6042578125,38.720703125q0-0.341796875,0.041015625-0.6904296875t0.041015625-0.6904296875l0-0.21875q0-0.423828125,0.3486328125-0.533203125t0.7177734375-0.109375q0.423828125,0,0.8134765625,0.177734375t0.3896484375,0.68359375q0.08203125,0.24609375,0.08203125,0.587890625l0,0.642578125q0,0.478515625-0.3349609375,0.6630859375t-0.8955078125,0.1845703125q-0.396484375,0-0.7998046875-0.1435546875t-0.4033203125-0.5537109375z"/><path fill="#" d="M7.5009765625,23.93115234375q-0.017578125-0.23291015625,0.03955078125-0.439453125t0.21533203125-0.3427734375t0.5361328125-0.13623046875q0.087890625,0,0.21533203125,0.017578125t0.2548828125,0.05712890625t0.20654296875,0.10986328125t0.0791015625,0.193359375q0,0.3251953125,0.02197265625,0.85693359375t0.05712890625,1.107421875t0.06591796875,1.125t0.05712890625,0.89208984375q0.685546875-0.03515625,1.3798828125-0.03515625t1.37109375-0.03515625l1.212890625-0.03515625l0-0.8701171875q0-1.458984375-0.05712890625-2.92236328125t-0.19775390625-2.92236328125q0-0.10546875,0.087890625-0.17138671875t0.20654296875-0.10107421875t0.24609375-0.0439453125t0.19775390625-0.0087890625q0.2021484375,0,0.43505859375,0.0615234375t0.26806640625,0.263671875l0.052734375,0.3779296875q0.2197265625,1.58203125,0.298828125,3.12890625t0.1142578125,3.09375q0.10546875,0.017578125,0.22412109375,0.05712890625t0.24169921875,0.07470703125q0.087890625,0.03515625,0.25048828125,0.10546875t0.16259765625,0.2197265625q0,0.140625-0.123046875,0.2197265625t-0.27685546875,0.11865234375t-0.298828125,0.04833984375t-0.18017578125,0.0087890625q0.017578125,0.650390625,0.017578125,1.29638671875l0,1.29638671875l0,2.8388671875l0,1.58203125q0,0.10546875-0.10107421875,0.18896484375t-0.24169921875,0.13623046875t-0.29443359375,0.0703125t-0.27685546875,0.017578125t-0.2900390625-0.017578125t-0.298828125-0.0703125t-0.23291015625-0.1318359375t-0.10107421875-0.193359375l0-0.3779296875q0.03515625-1.669921875,0.0791015625-3.30908203125t0.087890625-3.29150390625q-0.9580078125,0.03515625-1.94677734375,0.0439453125t-1.96435546875,0.0439453125q0.10546875,1.2392578125,0.24169921875,2.47412109375t0.28564453125,2.47412109375q0,0.10546875-0.10107421875,0.18896484375t-0.2373046875,0.13623046875t-0.2900390625,0.0703125t-0.27685546875,0.017578125q-0.2548828125,0-0.55810546875-0.087890625t-0.33837890625-0.3251953125q-0.10546875-0.931640625-0.19775390625-2.056640625t-0.16259765625-2.29833984375t-0.10986328125-2.29833984375t-0.03955078125-2.0390625q0-0.2197265625-0.017578125-0.45263671875z M17.543974609375,31.0107421875q0-0.80859375,0.18896484375-1.58642578125t0.32080078125-1.55126953125q0.03515625-0.2021484375,0.27685546875-0.25048828125t0.40869140625-0.04833984375q0.2900390625,0,0.4658203125,0.087890625q0.0703125,0.03515625,0.1318359375,0.0791015625t0.0615234375,0.1142578125q0,0.755859375-0.18017578125,1.4765625t-0.18017578125,1.529296875q0,0.2724609375,0.03955078125,0.51416015625t0.07470703125,0.47900390625l0.052734375,0.2548828125q0,0.0703125,0.0087890625,0.123046875t0.0263671875,0.123046875q0,0.158203125-0.22412109375,0.21533203125t-0.39111328125,0.05712890625q-0.2548828125,0-0.47021484375-0.10107421875t-0.33837890625-0.34716796875l-0.123046875-0.2548828125q-0.10546875-0.2021484375-0.10546875-0.45263671875t-0.0439453125-0.46142578125z M18.106474609375,25.7197265625l0-0.1669921875q0-0.4130859375,0.20654296875-0.73828125t0.61962890625-0.3251953125q0.052734375,0,0.10107421875,0.0087890625t0.10107421875,0.0087890625q0.10546875,0.017578125,0.27685546875,0.08349609375t0.17138671875,0.20654296875l0,0.017578125q-0.03515625,0.0703125-0.0439453125,0.14501953125t-0.0439453125,0.12744140625l0.017578125-0.017578125q-0.10546875,0.2724609375-0.17138671875,0.439453125t-0.14501953125,0.26806640625t-0.19775390625,0.14501953125t-0.33837890625,0.0439453125q-0.03515625,0-0.123046875-0.0087890625t-0.18896484375-0.03515625t-0.17138671875-0.0703125t-0.0703125-0.1318359375z"/></svg>
